<svg width="376" height="223" viewBox="0 0 376 223" fill="none" xmlns="http://www.w3.org/2000/svg">
<path d="M168.844 87.6941L166.375 87.3037L168.844 87.6941ZM360.344 186.694L375.611 162.194L346.759 161.223L360.344 186.694ZM0.844482 19.6941L1.68886 22.0472C33.1253 10.7666 78.9366 0.733317 114.558 6.85792C132.321 9.91192 147.248 16.9281 156.739 29.4887C166.21 42.0233 170.608 60.5308 166.375 87.3037L168.844 87.6941L171.314 88.0844C175.681 60.4574 171.274 40.4315 160.728 26.4744C150.202 12.5434 133.897 5.10957 115.406 1.93023C78.5191 -4.41183 31.7303 5.95494 0.000102639 17.341L0.844482 19.6941ZM168.844 87.6941L166.375 87.3037C161.086 120.763 145.269 149.685 125.97 171.776C106.645 193.895 83.9655 209.011 65.1488 214.999C55.7251 217.998 47.4995 218.637 41.2114 216.963C35.0694 215.327 30.6563 211.471 28.5594 204.98C26.4084 198.322 26.6281 188.657 30.5372 175.474C34.4341 162.333 41.9256 145.94 53.9841 125.987L51.8445 124.694L49.7049 123.401C37.5134 143.573 29.8017 160.368 25.7435 174.053C21.6976 187.696 21.2103 198.496 23.8015 206.517C26.4467 214.706 32.225 219.744 39.9249 221.794C47.4786 223.806 56.7451 222.921 66.6652 219.764C86.536 213.44 109.95 197.711 129.735 175.065C149.545 152.39 165.853 122.625 171.314 88.0844L168.844 87.6941ZM51.8445 124.694L53.9841 125.987C100.524 48.9802 177.051 6.38625 241.535 9.06688C273.712 10.4045 302.882 22.9954 324.043 48.1888C345.227 73.4112 358.592 111.517 358.6 164.233L361.1 164.233L363.6 164.232C363.591 110.703 350.017 71.3395 327.871 44.973C305.701 18.5778 275.149 5.45991 241.743 4.07119C175.061 1.29918 96.9773 45.1822 49.7049 123.401L51.8445 124.694Z" fill="white"/>
</svg>
