<svg width="233" height="258" viewBox="0 0 233 258" fill="none" xmlns="http://www.w3.org/2000/svg">
<path d="M138.805 80.3106L141.177 81.0997L138.805 80.3106ZM191.861 256.293C192.518 257.507 194.036 257.959 195.25 257.301L215.037 246.592C216.252 245.934 216.703 244.417 216.046 243.203C215.389 241.989 213.872 241.537 212.658 242.194L195.068 251.714L185.549 234.125C184.892 232.911 183.374 232.459 182.16 233.116C180.946 233.774 180.494 235.291 181.152 236.505L191.861 256.293ZM1.4069 59.6536L2.8138 61.7201C18.2796 51.1911 36.9923 39.8728 55.7323 30.6597C74.5131 21.4265 93.1447 14.3965 108.494 12.2964C123.946 10.1822 135.094 13.1446 140.487 22.5479C143.26 27.3835 144.728 34.2263 144.236 43.6466C143.744 53.0599 141.302 64.8842 136.433 79.5214L138.805 80.3106L141.177 81.0997C146.131 66.2099 148.706 53.9209 149.229 43.9076C149.752 33.9013 148.233 26.0045 144.825 20.0604C137.853 7.90457 123.854 5.14829 107.816 7.34258C91.6754 9.55097 72.4757 16.8566 53.5264 26.1726C34.5363 35.5087 15.6198 46.9532 1.49812e-06 57.587L1.4069 59.6536ZM138.805 80.3106L136.433 79.5214C124.237 116.18 109.191 138.867 94.8807 151.233C80.5621 163.606 67.2834 165.46 58.0753 161.371C48.8715 157.283 42.7286 146.819 43.5466 132.354C44.3639 117.902 52.193 99.619 70.8663 80.8719L69.095 79.1076L67.3238 77.3433C48.036 96.7075 39.4588 116.084 38.5546 132.072C37.6512 148.047 44.4716 160.8 56.046 165.94C67.6161 171.078 82.9305 168.168 98.1499 155.016C113.377 141.858 128.815 118.258 141.177 81.0997L138.805 80.3106ZM69.095 79.1076L70.8663 80.8719C89.7728 61.8906 113.629 40.9977 137.07 25.9329C148.791 18.4001 160.336 12.3719 171.052 8.75204C181.79 5.12422 191.491 3.98462 199.64 5.96264C207.673 7.91242 214.468 12.9536 219.417 22.2992C224.416 31.7391 227.538 45.6059 227.915 65.0709C228.669 104.002 218.432 164.461 191.664 254.389L194.06 255.103L196.456 255.816C223.262 165.76 233.683 104.699 232.914 64.9742C232.53 45.1113 229.346 30.3659 223.836 19.9594C218.275 9.45863 210.359 3.41914 200.819 1.10372C191.396 -1.18344 180.664 0.227262 169.451 4.01504C158.215 7.81076 146.291 14.0635 134.367 21.7267C110.517 37.0539 86.3783 58.2134 67.3238 77.3433L69.095 79.1076Z" fill="white"/>
</svg>
